<svg width="16" height="16" viewBox="0 0 16 16" fill="none" xmlns="http://www.w3.org/2000/svg">
<path d="M4 2.66634C4 2.40263 4.0782 2.14485 4.22471 1.92558C4.37122 1.70632 4.57945 1.53542 4.82309 1.4345C5.06672 1.33359 5.33481 1.30718 5.59345 1.35863C5.8521 1.41008 6.08967 1.53706 6.27614 1.72353C6.46261 1.91 6.5896 2.14758 6.64105 2.40622C6.69249 2.66486 6.66609 2.93295 6.56517 3.17659C6.46426 3.42022 6.29336 3.62846 6.07409 3.77497C5.85483 3.92148 5.59704 3.99968 5.33333 3.99968C4.97971 3.99968 4.64057 3.8592 4.39052 3.60915C4.14048 3.3591 4 3.01996 4 2.66634ZM5.33333 9.33301C5.59704 9.33301 5.85483 9.25481 6.07409 9.1083C6.29336 8.96179 6.46426 8.75356 6.56517 8.50992C6.66609 8.26629 6.69249 7.9982 6.64105 7.73956C6.5896 7.48091 6.46261 7.24334 6.27614 7.05687C6.08967 6.8704 5.8521 6.74341 5.59345 6.69196C5.33481 6.64051 5.06672 6.66692 4.82309 6.76784C4.57945 6.86875 4.37122 7.03965 4.22471 7.25892C4.0782 7.47818 4 7.73597 4 7.99968C4 8.3533 4.14048 8.69244 4.39052 8.94248C4.64057 9.19253 4.97971 9.33301 5.33333 9.33301ZM5.33333 14.6663C5.59704 14.6663 5.85483 14.5881 6.07409 14.4416C6.29336 14.2951 6.46426 14.0869 6.56517 13.8433C6.66609 13.5996 6.69249 13.3315 6.64105 13.0729C6.5896 12.8142 6.46261 12.5767 6.27614 12.3902C6.08967 12.2037 5.8521 12.0767 5.59345 12.0253C5.33481 11.9738 5.06672 12.0003 4.82309 12.1012C4.57945 12.2021 4.37122 12.373 4.22471 12.5922C4.0782 12.8115 4 13.0693 4 13.333C4 13.6866 4.14048 14.0258 4.39052 14.2758C4.64057 14.5259 4.97971 14.6663 5.33333 14.6663ZM10.6667 3.99968C10.9304 3.99968 11.1882 3.92148 11.4074 3.77497C11.6267 3.62846 11.7976 3.42022 11.8985 3.17659C11.9994 2.93295 12.0258 2.66486 11.9744 2.40622C11.9229 2.14758 11.7959 1.91 11.6095 1.72353C11.423 1.53706 11.1854 1.41008 10.9268 1.35863C10.6681 1.30718 10.4001 1.33359 10.1564 1.4345C9.91279 1.53542 9.70455 1.70632 9.55804 1.92558C9.41153 2.14485 9.33333 2.40263 9.33333 2.66634C9.33333 3.01996 9.47381 3.3591 9.72386 3.60915C9.97391 3.8592 10.313 3.99968 10.6667 3.99968ZM10.6667 9.33301C10.9304 9.33301 11.1882 9.25481 11.4074 9.1083C11.6267 8.96179 11.7976 8.75356 11.8985 8.50992C11.9994 8.26629 12.0258 7.9982 11.9744 7.73956C11.9229 7.48091 11.7959 7.24334 11.6095 7.05687C11.423 6.8704 11.1854 6.74341 10.9268 6.69196C10.6681 6.64051 10.4001 6.66692 10.1564 6.76784C9.91279 6.86875 9.70455 7.03965 9.55804 7.25892C9.41153 7.47818 9.33333 7.73597 9.33333 7.99968C9.33333 8.3533 9.47381 8.69244 9.72386 8.94248C9.97391 9.19253 10.313 9.33301 10.6667 9.33301ZM10.6667 14.6663C10.9304 14.6663 11.1882 14.5881 11.4074 14.4416C11.6267 14.2951 11.7976 14.0869 11.8985 13.8433C11.9994 13.5996 12.0258 13.3315 11.9744 13.0729C11.9229 12.8142 11.7959 12.5767 11.6095 12.3902C11.423 12.2037 11.1854 12.0767 10.9268 12.0253C10.6681 11.9738 10.4001 12.0003 10.1564 12.1012C9.91279 12.2021 9.70455 12.373 9.55804 12.5922C9.41153 12.8115 9.33333 13.0693 9.33333 13.333C9.33333 13.6866 9.47381 14.0258 9.72386 14.2758C9.97391 14.5259 10.313 14.6663 10.6667 14.6663Z" fill="#C4CDD5"/>
</svg>
