<svg width="40" height="40" viewBox="0 0 40 40" fill="none" xmlns="http://www.w3.org/2000/svg">
<rect width="40" height="40" rx="5.33333" fill="#9E77ED" fill-opacity="0.1"/>
<g clip-path="url(#clip0_1_21138)">
<path d="M10.9807 22.117C11.1351 22.1479 11.3173 22.0272 11.3485 21.8722C11.3533 21.8485 11.8483 19.4669 13.6583 16.9064C14.7174 15.4083 16.0141 14.1417 17.5123 13.1417C19.3093 11.9423 21.4053 11.1243 23.7462 10.7074L23.4907 11.0963C23.276 11.423 23.7803 11.7936 24.0129 11.4394L24.6554 10.4615C24.7451 10.2923 24.7151 10.148 24.5654 10.0285L23.5858 9.38717C23.2478 9.16569 22.9055 9.68871 23.2435 9.90998L23.5465 10.1084C21.15 10.5465 18.9999 11.3943 17.1504 12.6319C15.5869 13.6781 14.2349 15.0025 13.132 16.5684C11.2542 19.2345 10.756 21.648 10.7357 21.7495C10.7019 21.9186 10.8116 22.083 10.9807 22.117V22.117Z" fill="#5A21EC"/>
<path d="M28.3063 25.3811V23.3731C28.3063 23.2005 28.1664 23.0606 27.9938 23.0606H25.9409V13.51C25.9409 13.3374 25.801 13.1975 25.6284 13.1975H21.6352C21.4627 13.1975 21.3228 13.3374 21.3228 13.51V16.7869H17.6388C17.4662 16.7869 17.3263 16.9267 17.3263 17.0993V20.383H13.6423C13.4698 20.383 13.3299 20.5229 13.3299 20.6955V23.5238H9.64584C9.47327 23.5238 9.33337 23.6637 9.33337 23.8363V26.9615C9.33337 27.1341 9.47327 27.274 9.64584 27.274H10.7537C11.1577 27.274 11.1577 26.6491 10.7537 26.6491H9.9583V24.1487H13.3266V26.6491H12.4167C12.0127 26.6491 12.0127 27.274 12.4167 27.274H18.7933V30.3543C18.7933 30.5269 18.9332 30.6668 19.1058 30.6668H27.9938C27.9957 30.6668 27.9975 30.6665 27.9994 30.6665C28.0031 30.6665 28.0068 30.6668 28.0105 30.6668C28.4778 30.6668 28.938 30.543 29.3413 30.3089C29.6908 30.1061 29.3771 29.5658 29.0276 29.7684C28.7194 29.9473 28.3677 30.0418 28.0105 30.0418C26.8919 30.0418 25.982 29.1328 25.982 28.0154C25.982 26.8981 26.8919 25.9891 28.0105 25.9891C29.129 25.9891 30.039 26.8981 30.039 28.0154C30.039 28.2559 29.9973 28.4911 29.915 28.7147C29.7754 29.0938 30.3619 29.3097 30.5014 28.9306C30.6092 28.6377 30.6639 28.3298 30.6639 28.0154C30.6639 26.6535 29.6306 25.5286 28.3063 25.3811ZM26.4781 25.8531H23.8623V25.0818H27.6813V25.3853C27.237 25.4406 26.8266 25.6058 26.4781 25.8531ZM23.2373 26.478V27.2494H19.4183V26.478H23.2373ZM19.4183 27.8742H23.2373V28.6456H19.4183V27.8742ZM23.8623 27.8742H25.3609C25.3474 28.13 25.3726 28.3975 25.4334 28.6456H23.8623V27.8742ZM25.4704 27.2493H23.8623V26.478H25.8508C25.6847 26.7103 25.555 26.97 25.4704 27.2493ZM27.6813 24.4569H23.8623V23.6855H25.5881C25.6014 23.6872 25.6148 23.6884 25.6285 23.6884C25.6422 23.6884 25.6555 23.6872 25.6688 23.6855H27.6814V24.4569H27.6813ZM25.316 13.8224V23.0606H23.5498C23.3772 23.0606 23.2373 23.2005 23.2373 23.3731V24.7693V25.8531H21.9477V13.8224H25.316ZM17.3231 26.6491H13.9548V21.008H17.3231V26.6491ZM17.9512 26.6491V17.4118H21.3195V25.8531H19.1058C18.9332 25.8531 18.7933 25.9929 18.7933 26.1655V26.649H17.9512V26.6491ZM23.2373 30.0419H19.4183V29.2705H23.2373V30.0419ZM23.8623 30.0419V29.2705H25.6738C25.8333 29.5657 26.0473 29.8271 26.302 30.0419H23.8623Z" fill="#5A21EC"/>
<path d="M27.9988 29.664C28.1714 29.664 28.3113 29.5241 28.3113 29.3515V29.2454C28.5782 29.1384 28.78 28.8997 28.83 28.6015C28.8945 28.2176 28.6867 27.8711 28.3129 27.7392C28.1561 27.6839 27.9149 27.6462 27.8644 27.5355C27.8394 27.4804 27.8769 27.4313 27.9309 27.4021C28.081 27.3568 28.1763 27.4292 28.1867 27.4376C28.1823 27.4341 28.1801 27.4318 28.1801 27.4318C28.1801 27.4318 28.4561 27.5945 28.6127 27.4379C28.9043 27.1463 28.6034 26.972 28.6034 26.972C28.5438 26.9172 28.4422 26.8519 28.3113 26.8089V26.7382C28.3113 26.3342 27.6863 26.3342 27.6863 26.7382V26.827C27.4617 26.9193 27.2969 27.1228 27.2498 27.3731C27.2017 27.6284 27.2876 27.8775 27.4738 28.0234C27.6421 28.1552 27.8766 28.248 28.105 28.3285C28.1606 28.3482 28.2324 28.387 28.2137 28.4979C28.2024 28.5658 28.1438 28.6807 27.9968 28.6817C27.824 28.6828 27.7872 28.6772 27.6638 28.5966C27.5193 28.5022 27.3257 28.5428 27.2313 28.6873C27.1369 28.8318 27.1776 29.0254 27.3221 29.1198C27.4589 29.2092 27.5695 29.2573 27.6863 29.2822V29.3515C27.6863 29.5241 27.8262 29.664 27.9988 29.664V29.664Z" fill="#5A21EC"/>
</g>
<defs>
<clipPath id="clip0_1_21138">
<rect width="21.3333" height="21.3333" fill="white" transform="translate(9.33301 9.3335)"/>
</clipPath>
</defs>
</svg>
