<svg width="20" height="20" viewBox="0 0 20 20" fill="none" xmlns="http://www.w3.org/2000/svg">
<g clip-path="url(#clip0_1_21185)">
<path d="M17.675 13.2416C17.1448 14.4953 16.3156 15.6001 15.2599 16.4594C14.2041 17.3186 12.954 17.9061 11.6187 18.1706C10.2834 18.4351 8.90368 18.3684 7.60011 17.9764C6.29655 17.5845 5.10884 16.8792 4.14084 15.9222C3.17283 14.9651 2.454 13.7856 2.04719 12.4866C1.64037 11.1876 1.55796 9.80868 1.80715 8.47047C2.05635 7.13226 2.62957 5.87547 3.4767 4.80997C4.32382 3.74447 5.41906 2.90271 6.66666 2.35828" stroke="#1D1D31" stroke-width="2" stroke-linecap="round" stroke-linejoin="round"/>
<path d="M18.3333 9.99996C18.3333 8.90561 18.1178 7.82198 17.699 6.81093C17.2802 5.79988 16.6664 4.88122 15.8926 4.1074C15.1187 3.33358 14.2001 2.71975 13.189 2.30096C12.178 1.88217 11.0943 1.66663 10 1.66663V9.99996H18.3333Z" stroke="#1D1D31" stroke-width="2" stroke-linecap="round" stroke-linejoin="round"/>
</g>
<defs>
<clipPath id="clip0_1_21185">
<rect width="20" height="20" fill="white"/>
</clipPath>
</defs>
</svg>
