<svg width="20" height="20" viewBox="0 0 20 20" fill="none" xmlns="http://www.w3.org/2000/svg">
<g clip-path="url(#clip0_1_21203)">
<path d="M10 12.5C11.3807 12.5 12.5 11.3807 12.5 10C12.5 8.61929 11.3807 7.5 10 7.5C8.61929 7.5 7.5 8.61929 7.5 10C7.5 11.3807 8.61929 12.5 10 12.5Z" stroke="#1D1D31" stroke-width="2" stroke-linecap="round" stroke-linejoin="round"/>
<path d="M16.1666 12.5C16.0557 12.7514 16.0226 13.0302 16.0716 13.3005C16.1207 13.5709 16.2495 13.8203 16.4416 14.0167L16.4916 14.0667C16.6466 14.2215 16.7695 14.4053 16.8534 14.6076C16.9373 14.81 16.9805 15.0268 16.9805 15.2459C16.9805 15.4649 16.9373 15.6818 16.8534 15.8841C16.7695 16.0864 16.6466 16.2702 16.4916 16.425C16.3369 16.58 16.153 16.7029 15.9507 16.7868C15.7484 16.8707 15.5315 16.9139 15.3125 16.9139C15.0935 16.9139 14.8766 16.8707 14.6742 16.7868C14.4719 16.7029 14.2881 16.58 14.1333 16.425L14.0833 16.375C13.8869 16.1829 13.6375 16.0541 13.3671 16.005C13.0968 15.956 12.818 15.9891 12.5666 16.1C12.3202 16.2057 12.11 16.3811 11.9619 16.6047C11.8138 16.8282 11.7344 17.0902 11.7333 17.3584V17.5C11.7333 17.9421 11.5577 18.366 11.2452 18.6785C10.9326 18.9911 10.5087 19.1667 10.0666 19.1667C9.62462 19.1667 9.2007 18.9911 8.88813 18.6785C8.57557 18.366 8.39998 17.9421 8.39998 17.5V17.425C8.39353 17.1492 8.30424 16.8817 8.14374 16.6573C7.98323 16.4329 7.75893 16.2619 7.49998 16.1667C7.24863 16.0558 6.96982 16.0227 6.69949 16.0717C6.42916 16.1207 6.17971 16.2496 5.98331 16.4417L5.93331 16.4917C5.77852 16.6467 5.59471 16.7696 5.39238 16.8535C5.19005 16.9373 4.97317 16.9805 4.75415 16.9805C4.53512 16.9805 4.31824 16.9373 4.11591 16.8535C3.91358 16.7696 3.72977 16.6467 3.57498 16.4917C3.42002 16.3369 3.29709 16.1531 3.21321 15.9508C3.12934 15.7484 3.08617 15.5316 3.08617 15.3125C3.08617 15.0935 3.12934 14.8766 3.21321 14.6743C3.29709 14.472 3.42002 14.2882 3.57498 14.1334L3.62498 14.0834C3.81709 13.887 3.94597 13.6375 3.99498 13.3672C4.044 13.0969 4.01091 12.8181 3.89998 12.5667C3.79434 12.3202 3.61894 12.11 3.39537 11.962C3.17179 11.8139 2.9098 11.7344 2.64165 11.7334H2.49998C2.05795 11.7334 1.63403 11.5578 1.32147 11.2452C1.00891 10.9327 0.833313 10.5087 0.833313 10.0667C0.833313 9.62468 1.00891 9.20076 1.32147 8.8882C1.63403 8.57563 2.05795 8.40004 2.49998 8.40004H2.57498C2.85081 8.39359 3.11832 8.30431 3.34273 8.1438C3.56714 7.98329 3.73808 7.75899 3.83331 7.50004C3.94424 7.24869 3.97733 6.96988 3.92832 6.69955C3.8793 6.42922 3.75043 6.17977 3.55831 5.98337L3.50831 5.93337C3.35335 5.77858 3.23042 5.59477 3.14655 5.39244C3.06267 5.19011 3.0195 4.97323 3.0195 4.75421C3.0195 4.53518 3.06267 4.3183 3.14655 4.11597C3.23042 3.91364 3.35335 3.72983 3.50831 3.57504C3.6631 3.42008 3.84692 3.29715 4.04925 3.21327C4.25158 3.1294 4.46845 3.08623 4.68748 3.08623C4.90651 3.08623 5.12338 3.1294 5.32571 3.21327C5.52804 3.29715 5.71186 3.42008 5.86665 3.57504L5.91665 3.62504C6.11305 3.81715 6.36249 3.94603 6.63282 3.99504C6.90315 4.04406 7.18197 4.01097 7.43331 3.90004H7.49998C7.74645 3.7944 7.95666 3.619 8.10472 3.39543C8.25279 3.17185 8.33224 2.90986 8.33331 2.64171V2.50004C8.33331 2.05801 8.50891 1.63409 8.82147 1.32153C9.13403 1.00897 9.55795 0.833374 9.99998 0.833374C10.442 0.833374 10.8659 1.00897 11.1785 1.32153C11.4911 1.63409 11.6666 2.05801 11.6666 2.50004V2.57504C11.6677 2.8432 11.7472 3.10519 11.8952 3.32876C12.0433 3.55234 12.2535 3.72774 12.5 3.83337C12.7513 3.9443 13.0301 3.97739 13.3005 3.92838C13.5708 3.87936 13.8202 3.75049 14.0166 3.55837L14.0666 3.50837C14.2214 3.35341 14.4052 3.23048 14.6076 3.14661C14.8099 3.06273 15.0268 3.01956 15.2458 3.01956C15.4648 3.01956 15.6817 3.06273 15.884 3.14661C16.0864 3.23048 16.2702 3.35341 16.425 3.50837C16.5799 3.66316 16.7029 3.84698 16.7867 4.04931C16.8706 4.25164 16.9138 4.46851 16.9138 4.68754C16.9138 4.90657 16.8706 5.12344 16.7867 5.32577C16.7029 5.5281 16.5799 5.71192 16.425 5.86671L16.375 5.91671C16.1829 6.11311 16.054 6.36255 16.005 6.63288C15.956 6.90321 15.989 7.18203 16.1 7.43337V7.50004C16.2056 7.74651 16.381 7.95672 16.6046 8.10478C16.8282 8.25285 17.0902 8.3323 17.3583 8.33337H17.5C17.942 8.33337 18.3659 8.50897 18.6785 8.82153C18.991 9.13409 19.1666 9.55801 19.1666 10C19.1666 10.4421 18.991 10.866 18.6785 11.1786C18.3659 11.4911 17.942 11.6667 17.5 11.6667H17.425C17.1568 11.6678 16.8948 11.7472 16.6713 11.8953C16.4477 12.0434 16.2723 12.2536 16.1666 12.5V12.5Z" stroke="#1D1D31" stroke-width="2" stroke-linecap="round" stroke-linejoin="round"/>
</g>
<defs>
<clipPath id="clip0_1_21203">
<rect width="20" height="20" fill="white"/>
</clipPath>
</defs>
</svg>
