<svg width="23" height="23" viewBox="0 0 23 23" fill="none" xmlns="http://www.w3.org/2000/svg">
<path d="M10.5417 11.8154V1.43756C10.5417 1.17306 10.327 0.958374 10.0625 0.958374C4.51375 0.958374 0 5.90243 0 11.9792C0 18.056 4.94406 23.0001 11.0208 23.0001C13.7396 23.0001 15.2106 22.5075 17.0756 20.9741C17.2759 20.8093 17.3084 20.5151 17.1494 20.31L10.5417 11.8154ZM11.0208 22.0417C5.47207 22.0417 0.958318 17.528 0.958318 11.9792C0.958318 6.60874 4.78494 2.20711 9.58332 1.93017V11.9792C9.58332 12.0856 9.61876 12.1891 9.68489 12.2734L16.1019 20.5237C14.5887 21.6795 13.3266 22.0417 11.0208 22.0417Z" fill="#5A21EC"/>
<path d="M11.9792 11.5H22.5209C22.7854 11.5 23 11.2853 23 11.0208C23 4.94406 18.0559 0 11.9792 0C11.7147 0 11.5 0.214682 11.5 0.479182V11.0209C11.5 11.2853 11.7147 11.5 11.9792 11.5ZM12.4583 0.969818C17.6266 1.21325 21.7868 5.37337 22.0301 10.5416H12.4583V0.969818Z" fill="#5A21EC"/>
<path d="M22.5208 12.4584H12.9375C12.7535 12.4584 12.5838 12.5647 12.5043 12.7315C12.4247 12.8982 12.4487 13.0957 12.5647 13.2384L18.7938 20.9501C18.8772 21.0546 18.9999 21.1178 19.1331 21.1274C19.1446 21.1284 19.1552 21.1284 19.1667 21.1284C19.2874 21.1284 19.4043 21.0824 19.4935 21C21.7215 18.9214 23 15.9831 23 12.9376C23 12.6731 22.7853 12.4584 22.5208 12.4584ZM19.2078 19.9372L13.9408 13.4167H22.0302C21.9123 15.8528 20.9041 18.1825 19.2078 19.9372Z" fill="#5A21EC"/>
</svg>
