<svg width="20" height="20" viewBox="0 0 20 20" fill="none" xmlns="http://www.w3.org/2000/svg">
<g clip-path="url(#clip0_1_21194)">
<path d="M19.1667 17.4999V15.8333C19.1661 15.0947 18.9203 14.3773 18.4678 13.7935C18.0153 13.2098 17.3818 12.7929 16.6667 12.6083" stroke="#1D1D31" stroke-width="2" stroke-linecap="round" stroke-linejoin="round"/>
<path d="M14.1666 17.5V15.8333C14.1666 14.9493 13.8155 14.1014 13.1903 13.4763C12.5652 12.8512 11.7174 12.5 10.8333 12.5H4.16665C3.28259 12.5 2.43475 12.8512 1.80962 13.4763C1.1845 14.1014 0.833313 14.9493 0.833313 15.8333V17.5" stroke="#1D1D31" stroke-width="2" stroke-linecap="round" stroke-linejoin="round"/>
<path d="M13.3333 2.60828C14.0503 2.79186 14.6858 3.20886 15.1397 3.79353C15.5935 4.37821 15.8398 5.0973 15.8398 5.83744C15.8398 6.57758 15.5935 7.29668 15.1397 7.88135C14.6858 8.46603 14.0503 8.88303 13.3333 9.06661" stroke="#1D1D31" stroke-width="2" stroke-linecap="round" stroke-linejoin="round"/>
<path d="M7.50002 9.16667C9.34097 9.16667 10.8334 7.67428 10.8334 5.83333C10.8334 3.99238 9.34097 2.5 7.50002 2.5C5.65907 2.5 4.16669 3.99238 4.16669 5.83333C4.16669 7.67428 5.65907 9.16667 7.50002 9.16667Z" stroke="#1D1D31" stroke-width="2" stroke-linecap="round" stroke-linejoin="round"/>
</g>
<defs>
<clipPath id="clip0_1_21194">
<rect width="20" height="20" fill="white"/>
</clipPath>
</defs>
</svg>
