<svg width="22" height="22" viewBox="0 0 22 22" fill="none" xmlns="http://www.w3.org/2000/svg">
<path d="M1.98067 13.117C2.13507 13.1479 2.31726 13.0272 2.3485 12.8722C2.35329 12.8485 2.84828 10.4669 4.65832 7.90645C5.7174 6.40833 7.01408 5.14169 8.51232 4.14168C10.3093 2.94232 12.4053 2.12425 14.7462 1.70739L14.4907 2.0963C14.276 2.42301 14.7803 2.79359 15.0129 2.43942L15.6554 1.4615C15.7451 1.29227 15.7151 1.14795 15.5654 1.02851L14.5858 0.387165C14.2478 0.165691 13.9055 0.688713 14.2435 0.909979L14.5465 1.10841C12.15 1.54653 9.99986 2.39435 8.15045 3.63187C6.58688 4.67808 5.23487 6.00255 4.13196 7.56845C2.25422 10.2345 1.75603 12.648 1.73574 12.7495C1.70191 12.9186 1.81157 13.083 1.98067 13.117V13.117Z" fill="#5A21EC"/>
<path d="M19.3063 16.3811V14.3731C19.3063 14.2005 19.1664 14.0606 18.9938 14.0606H16.9409V4.50997C16.9409 4.33737 16.801 4.19751 16.6284 4.19751H12.6352C12.4627 4.19751 12.3228 4.33737 12.3228 4.50997V7.78688H8.63878C8.46621 7.78688 8.32631 7.92674 8.32631 8.09934V11.383H4.64233C4.46976 11.383 4.32986 11.5229 4.32986 11.6955V14.5238H0.645837C0.473274 14.5238 0.333374 14.6637 0.333374 14.8363V17.9615C0.333374 18.1341 0.473274 18.274 0.645837 18.274H1.75375C2.15774 18.274 2.15774 17.6491 1.75375 17.6491H0.958301V15.1487H4.32657V17.6491H3.41672C3.01273 17.6491 3.01273 18.274 3.41672 18.274H9.79335V21.3543C9.79335 21.5269 9.93325 21.6668 10.1058 21.6668H18.9938C18.9957 21.6668 18.9975 21.6665 18.9994 21.6665C19.0031 21.6665 19.0068 21.6668 19.0105 21.6668C19.4778 21.6668 19.938 21.543 20.3413 21.3089C20.6908 21.1061 20.3771 20.5658 20.0276 20.7684C19.7194 20.9473 19.3677 21.0418 19.0105 21.0418C17.8919 21.0418 16.982 20.1328 16.982 19.0154C16.982 17.8981 17.8919 16.9891 19.0105 16.9891C20.129 16.9891 21.039 17.8981 21.039 19.0154C21.039 19.2559 20.9973 19.4911 20.915 19.7147C20.7754 20.0938 21.3619 20.3097 21.5014 19.9306C21.6092 19.6377 21.6639 19.3298 21.6639 19.0154C21.6639 17.6535 20.6306 16.5286 19.3063 16.3811ZM17.4781 16.8531H14.8623V16.0818H18.6813V16.3853C18.237 16.4406 17.8266 16.6058 17.4781 16.8531ZM14.2373 17.478V18.2494H10.4183V17.478H14.2373ZM10.4183 18.8742H14.2373V19.6456H10.4183V18.8742ZM14.8623 18.8742H16.3609C16.3474 19.13 16.3726 19.3975 16.4334 19.6456H14.8623V18.8742ZM16.4704 18.2493H14.8623V17.478H16.8508C16.6847 17.7103 16.555 17.97 16.4704 18.2493ZM18.6813 15.4569H14.8623V14.6855H16.5881C16.6014 14.6872 16.6148 14.6884 16.6285 14.6884C16.6422 14.6884 16.6555 14.6872 16.6688 14.6855H18.6814V15.4569H18.6813ZM16.316 4.82244V14.0606H14.5498C14.3772 14.0606 14.2373 14.2005 14.2373 14.3731V15.7693V16.8531H12.9477V4.82244H16.316ZM8.32306 17.6491H4.95479V12.008H8.32306V17.6491ZM8.95124 17.6491V8.41181H12.3195V16.8531H10.1058C9.93325 16.8531 9.79335 16.9929 9.79335 17.1655V17.649H8.95124V17.6491ZM14.2373 21.0419H10.4183V20.2705H14.2373V21.0419ZM14.8623 21.0419V20.2705H16.6738C16.8333 20.5657 17.0473 20.8271 17.302 21.0419H14.8623Z" fill="#5A21EC"/>
<path d="M18.9988 20.664C19.1714 20.664 19.3113 20.5241 19.3113 20.3515V20.2454C19.5782 20.1384 19.78 19.8997 19.83 19.6015C19.8945 19.2176 19.6867 18.8711 19.3129 18.7392C19.1561 18.6839 18.9149 18.6462 18.8644 18.5355C18.8394 18.4804 18.8769 18.4313 18.9309 18.4021C19.081 18.3568 19.1763 18.4292 19.1867 18.4376C19.1823 18.4341 19.1801 18.4318 19.1801 18.4318C19.1801 18.4318 19.4561 18.5945 19.6127 18.4379C19.9043 18.1463 19.6034 17.972 19.6034 17.972C19.5438 17.9172 19.4422 17.8519 19.3113 17.8089V17.7382C19.3113 17.3342 18.6863 17.3342 18.6863 17.7382V17.827C18.4617 17.9193 18.2969 18.1228 18.2498 18.3731C18.2017 18.6284 18.2876 18.8775 18.4738 19.0234C18.6421 19.1552 18.8766 19.248 19.105 19.3285C19.1606 19.3482 19.2324 19.387 19.2137 19.4979C19.2024 19.5658 19.1438 19.6807 18.9968 19.6817C18.824 19.6828 18.7872 19.6772 18.6638 19.5966C18.5193 19.5022 18.3257 19.5428 18.2313 19.6873C18.1369 19.8318 18.1776 20.0254 18.3221 20.1198C18.4589 20.2092 18.5695 20.2573 18.6863 20.2822V20.3515C18.6863 20.5241 18.8262 20.664 18.9988 20.664V20.664Z" fill="#5A21EC"/>
</svg>
