<svg width="22" height="22" viewBox="0 0 22 22" fill="none" xmlns="http://www.w3.org/2000/svg">
<path d="M21.3102 11.6901L20.6435 11.6434C20.4915 13.9176 19.5408 16.0649 17.9593 17.7062C16.3778 19.3475 14.2672 20.3772 12.0002 20.6134V18.2634C13.6364 18.0382 15.1486 17.2672 16.292 16.0754C17.4354 14.8837 18.143 13.3408 18.3002 11.6967L17.6335 11.6367C17.4858 13.178 16.8062 14.6197 15.7113 15.7145C14.6165 16.8093 13.1748 17.489 11.6335 17.6367C11.5504 17.6442 11.4732 17.6826 11.417 17.7444C11.3608 17.8061 11.3299 17.8866 11.3302 17.9701V20.9701C11.3303 21.0158 11.3399 21.0609 11.3582 21.1028C11.3766 21.1447 11.4034 21.1823 11.4369 21.2134C11.4983 21.2709 11.5793 21.3031 11.6635 21.3034H11.6869C14.1828 21.1372 16.5337 20.0713 18.3034 18.3034C20.0731 16.5356 21.1414 14.1858 21.3102 11.6901V11.6901Z" fill="#5A21EC"/>
<path d="M3.70019 10.3034L4.36685 10.3634C4.51462 8.82216 5.19423 7.38041 6.28904 6.28559C7.38386 5.19078 8.82561 4.51117 10.3669 4.3634C10.45 4.35589 10.5272 4.31749 10.5834 4.25577C10.6396 4.19405 10.6705 4.11351 10.6702 4.03007V1.03007C10.67 0.984363 10.6605 0.939176 10.6421 0.897316C10.6238 0.855455 10.597 0.817815 10.5635 0.786736C10.5302 0.755395 10.4909 0.731232 10.4479 0.715749C10.4049 0.700266 10.3591 0.693794 10.3135 0.696736C7.81761 0.862909 5.4667 1.92881 3.697 3.69668C1.9273 5.46454 0.858954 7.81433 0.690186 10.3101L1.35685 10.3567C1.50884 8.08254 2.45954 5.9352 4.04106 4.29391C5.62258 2.65262 7.73319 1.62295 10.0002 1.38674V3.73674C8.36404 3.96196 6.85182 4.73288 5.70843 5.92467C4.56503 7.11646 3.85742 8.65933 3.70019 10.3034V10.3034Z" fill="#5A21EC"/>
<path d="M10.3101 21.3101L10.3567 20.6434C8.08254 20.4914 5.9352 19.5407 4.29391 17.9592C2.65262 16.3777 1.62295 14.2671 1.38674 12.0001H3.73674C3.96196 13.6362 4.73288 15.1484 5.92467 16.2918C7.11646 17.4352 8.65933 18.1428 10.3034 18.3001L10.3634 17.6334C8.82216 17.4857 7.38041 16.806 6.28559 15.7112C5.19078 14.6164 4.51117 13.1747 4.3634 11.6334C4.35589 11.5503 4.31749 11.473 4.25577 11.4169C4.19405 11.3607 4.11351 11.3297 4.03007 11.3301H1.03007C0.984363 11.3302 0.939176 11.3398 0.897316 11.3581C0.855455 11.3765 0.817815 11.4032 0.786736 11.4367C0.755395 11.47 0.731232 11.5094 0.715749 11.5524C0.700266 11.5954 0.693794 11.6411 0.696736 11.6867C0.862909 14.1827 1.92881 16.5336 3.69668 18.3033C5.46454 20.073 7.81433 21.1413 10.3101 21.3101V21.3101Z" fill="#5A21EC"/>
<path d="M11.6968 3.70006L11.6368 4.36673C13.1781 4.51449 14.6198 5.1941 15.7146 6.28892C16.8095 7.38374 17.4891 8.82549 17.6368 10.3667C17.6443 10.4498 17.6828 10.5271 17.7445 10.5833C17.8062 10.6394 17.8867 10.6704 17.9702 10.6701H20.9702C21.0159 10.6699 21.0611 10.6604 21.1029 10.642C21.1448 10.6237 21.1824 10.5969 21.2135 10.5634C21.2448 10.5301 21.269 10.4908 21.2845 10.4478C21.3 10.4047 21.3064 10.359 21.3035 10.3134C21.1373 7.81749 20.0714 5.46658 18.3036 3.69688C16.5357 1.92718 14.1859 0.858831 11.6902 0.690063L11.6435 1.35673C13.9177 1.50872 16.065 2.45942 17.7063 4.04094C19.3476 5.62246 20.3773 7.73307 20.6135 10.0001H18.2635C18.0383 8.36391 17.2674 6.8517 16.0756 5.7083C14.8838 4.56491 13.3409 3.8573 11.6968 3.70006V3.70006Z" fill="#5A21EC"/>
<path d="M8.44368 6.66678C8.38247 6.66665 8.3224 6.68338 8.27007 6.71513C8.21774 6.74688 8.17517 6.79243 8.14701 6.84678L7.11368 8.86678C7.10391 8.8871 7.0961 8.90831 7.09034 8.93011C7.03028 9.14243 7.02101 9.36591 7.06329 9.58247C7.10556 9.79904 7.19818 10.0026 7.33368 10.1768C7.42613 10.3051 7.53869 10.4177 7.66701 10.5101V14.6668C7.66701 14.7552 7.70213 14.84 7.76464 14.9025C7.82715 14.965 7.91194 15.0001 8.00034 15.0001H14.0003C14.0887 15.0001 14.1735 14.965 14.236 14.9025C14.2986 14.84 14.3337 14.7552 14.3337 14.6668V10.4968C14.462 10.4043 14.5746 10.2918 14.667 10.1634C14.8014 9.98872 14.8928 9.78486 14.9339 9.56831C14.975 9.35176 14.9647 9.12859 14.9037 8.91678C14.8979 8.89498 14.8901 8.87377 14.8803 8.85344L13.847 6.83344C13.8189 6.77909 13.7763 6.73355 13.7239 6.7018C13.6716 6.67005 13.6116 6.65332 13.5503 6.65344L8.44368 6.66678ZM8.64701 7.33344H9.68701L9.26034 8.62344C9.25878 8.63338 9.25878 8.6435 9.26034 8.65344H7.97368L8.64701 7.33344ZM7.85701 9.77344C7.76188 9.64603 7.70834 9.49239 7.70368 9.33344H9.25034L9.19701 9.53011C9.15761 9.66478 9.08186 9.78599 8.97806 9.88042C8.87427 9.97484 8.74646 10.0388 8.60867 10.0654C8.47089 10.0919 8.32845 10.0799 8.19702 10.0308C8.06559 9.98162 7.95025 9.8972 7.86368 9.78678L7.85701 9.77344ZM14.1437 9.77344C14.0571 9.88387 13.9418 9.96829 13.8103 10.0174C13.6789 10.0666 13.5365 10.0785 13.3987 10.052C13.2609 10.0255 13.1331 9.96151 13.0293 9.86708C12.9255 9.77266 12.8497 9.65145 12.8103 9.51678L12.7503 9.33344H14.297C14.2924 9.49239 14.2388 9.64603 14.1437 9.77344V9.77344ZM13.3537 7.33344L14.0203 8.66678H12.747C12.7486 8.65684 12.7486 8.64672 12.747 8.63678L12.3137 7.33344H13.3537ZM12.3537 10.1134C12.4852 10.3061 12.6617 10.4639 12.8679 10.5731C13.074 10.6823 13.3037 10.7396 13.537 10.7401H13.667V14.3334H8.33368V10.7334H8.46368C8.69708 10.7335 8.92696 10.6764 9.13323 10.5672C9.33949 10.4579 9.51589 10.2999 9.64701 10.1068C9.81348 10.3034 10.0208 10.4613 10.2545 10.5697C10.4882 10.678 10.7427 10.7342 11.0003 10.7342C11.258 10.7342 11.5125 10.678 11.7462 10.5697C11.9799 10.4613 12.1872 10.3034 12.3537 10.1068V10.1134ZM9.95368 9.33344H12.047C11.9738 9.5531 11.8333 9.74414 11.6454 9.87951C11.4576 10.0149 11.2319 10.0877 11.0003 10.0877C10.7688 10.0877 10.5431 10.0149 10.3553 9.87951C10.1674 9.74414 10.0269 9.5531 9.95368 9.33344V9.33344ZM11.6203 7.33344L12.057 8.66678H9.95368L10.3903 7.33344H11.6203Z" fill="#5A21EC"/>
<path d="M9.33337 11.6668V13.3335C9.33337 13.4219 9.36849 13.5067 9.431 13.5692C9.49352 13.6317 9.5783 13.6668 9.66671 13.6668H12.3334C12.4218 13.6668 12.5066 13.6317 12.5691 13.5692C12.6316 13.5067 12.6667 13.4219 12.6667 13.3335V11.6668C12.6667 11.5784 12.6316 11.4936 12.5691 11.4311C12.5066 11.3686 12.4218 11.3335 12.3334 11.3335H9.66671C9.5783 11.3335 9.49352 11.3686 9.431 11.4311C9.36849 11.4936 9.33337 11.5784 9.33337 11.6668ZM10 12.0002H12V13.0002H10V12.0002Z" fill="#5A21EC"/>
</svg>
