<svg width="32" height="32" viewBox="0 0 32 32" fill="none" xmlns="http://www.w3.org/2000/svg">
<g clip-path="url(#clip0_329_43)">
<path d="M28 10V9.00002C28 4.03709 23.9629 0 19 0C14.0371 0 9.99997 4.03709 9.99997 9.00002V16H4V20.0001H9.76418C9.29545 23.1676 8.13353 26.1946 6.33595 28.8907C5.92674 29.504 5.88868 30.293 6.23637 30.9434C6.585 31.5939 7.26272 32.0001 8.00003 32.0001H26V28H11.4414C12.6587 25.4793 13.4393 22.7804 13.7859 20.0001H20V16H14V9.00002C14 6.24317 16.2431 4.00003 19 4.00003C21.7568 4.00003 24 6.24317 24 9.00002V10H28Z" fill="#6941C6"/>
</g>
<defs>
<clipPath id="clip0_329_43">
<rect width="32" height="32" fill="white"/>
</clipPath>
</defs>
</svg>
